<svg width="28" height="28" viewBox="0 0 28 28" fill="none" xmlns="http://www.w3.org/2000/svg">
<path d="M25.6667 17.5C25.6667 22.015 22.015 25.6667 17.5 25.6667L18.725 23.625" stroke="#0D184A" stroke-width="1.75" stroke-linecap="round" stroke-linejoin="round"/>
<path d="M2.33203 10.4987C2.33203 5.9837 5.9837 2.33203 10.4987 2.33203L9.27369 4.3737" stroke="#0D184A" stroke-width="1.75" stroke-linecap="round" stroke-linejoin="round"/>
<path d="M15.9844 5.19141L20.6277 7.87473L25.2244 5.20308" stroke="#0D184A" stroke-width="1.75" stroke-linecap="round" stroke-linejoin="round"/>
<path d="M20.6289 12.6233V7.86328" stroke="#0D184A" stroke-width="1.75" stroke-linecap="round" stroke-linejoin="round"/>
<path d="M19.5292 2.57703L16.7292 4.12865C16.0992 4.47865 15.5742 5.36531 15.5742 6.08864V9.05202C15.5742 9.77535 16.0875 10.662 16.7292 11.012L19.5292 12.5637C20.1242 12.902 21.1042 12.902 21.7109 12.5637L24.5109 11.012C25.1409 10.662 25.6659 9.77535 25.6659 9.05202V6.08864C25.6659 5.36531 25.1525 4.47865 24.5109 4.12865L21.7109 2.57703C21.1159 2.25036 20.1359 2.25036 19.5292 2.57703Z" stroke="#0D184A" stroke-width="1.75" stroke-linecap="round" stroke-linejoin="round"/>
<path d="M2.74219 18.0273L7.37386 20.7107L11.9822 18.039" stroke="#0D184A" stroke-width="1.75" stroke-linecap="round" stroke-linejoin="round"/>
<path d="M7.375 25.4592V20.6992" stroke="#0D184A" stroke-width="1.75" stroke-linecap="round" stroke-linejoin="round"/>
<path d="M6.28703 15.413L3.48704 16.9646C2.85704 17.3146 2.33203 18.2012 2.33203 18.9246V21.888C2.33203 22.6113 2.84537 23.4979 3.48704 23.8479L6.28703 25.3996C6.88203 25.738 7.86203 25.738 8.46869 25.3996L11.2687 23.8479C11.8987 23.4979 12.4237 22.6113 12.4237 21.888V18.9246C12.4237 18.2012 11.9104 17.3146 11.2687 16.9646L8.46869 15.413C7.86203 15.0863 6.88203 15.0863 6.28703 15.413Z" stroke="#0D184A" stroke-width="1.75" stroke-linecap="round" stroke-linejoin="round"/>
</svg>
