<svg width="28" height="28" viewBox="0 0 28 28" fill="none" xmlns="http://www.w3.org/2000/svg">
<path d="M13.9987 25.6654C20.442 25.6654 25.6654 20.442 25.6654 13.9987C25.6654 7.55538 20.442 2.33203 13.9987 2.33203C7.55538 2.33203 2.33203 7.55538 2.33203 13.9987C2.33203 20.442 7.55538 25.6654 13.9987 25.6654Z" stroke="#0D184A" stroke-width="1.75" stroke-linecap="round" stroke-linejoin="round"/>
<path d="M9.33255 3.5H10.4992C8.22422 10.3133 8.22422 17.6867 10.4992 24.5H9.33255" stroke="#0D184A" stroke-width="1.75" stroke-linecap="round" stroke-linejoin="round"/>
<path d="M17.5 3.5C19.775 10.3133 19.775 17.6867 17.5 24.5" stroke="#0D184A" stroke-width="1.75" stroke-linecap="round" stroke-linejoin="round"/>
<path d="M3.5 18.6667V17.5C10.3133 19.775 17.6867 19.775 24.5 17.5V18.6667" stroke="#0D184A" stroke-width="1.75" stroke-linecap="round" stroke-linejoin="round"/>
<path d="M3.5 10.4992C10.3133 8.22422 17.6867 8.22422 24.5 10.4992" stroke="#0D184A" stroke-width="1.75" stroke-linecap="round" stroke-linejoin="round"/>
</svg>
