<svg width="28" height="28" viewBox="0 0 28 28" fill="none" xmlns="http://www.w3.org/2000/svg">
<path d="M21.0017 8.35204C20.9317 8.34037 20.8501 8.34037 20.7801 8.35204C19.1701 8.2937 17.8867 6.97537 17.8867 5.34203C17.8867 3.6737 19.2284 2.33203 20.8967 2.33203C22.5651 2.33203 23.9067 3.68537 23.9067 5.34203C23.895 6.97537 22.6117 8.2937 21.0017 8.35204Z" stroke="#0D184A" stroke-width="1.75" stroke-linecap="round" stroke-linejoin="round"/>
<path d="M19.8006 16.8456C21.399 17.1139 23.1606 16.8339 24.3973 16.0056C26.0423 14.9089 26.0423 13.1122 24.3973 12.0156C23.149 11.1872 21.364 10.9072 19.7656 11.1872" stroke="#0D184A" stroke-width="1.75" stroke-linecap="round" stroke-linejoin="round"/>
<path d="M6.9636 8.35204C7.0336 8.34037 7.11526 8.34037 7.18526 8.35204C8.79526 8.2937 10.0786 6.97537 10.0786 5.34203C10.0786 3.6737 8.73693 2.33203 7.0686 2.33203C5.40026 2.33203 4.05859 3.68537 4.05859 5.34203C4.07026 6.97537 5.3536 8.2937 6.9636 8.35204Z" stroke="#0D184A" stroke-width="1.75" stroke-linecap="round" stroke-linejoin="round"/>
<path d="M8.16635 16.8456C6.56802 17.1139 4.80635 16.8339 3.56969 16.0056C1.92469 14.9089 1.92469 13.1122 3.56969 12.0156C4.81802 11.1872 6.60302 10.9072 8.20135 11.1872" stroke="#0D184A" stroke-width="1.75" stroke-linecap="round" stroke-linejoin="round"/>
<path d="M14.0017 17.0669C13.9317 17.0552 13.8501 17.0552 13.7801 17.0669C12.1701 17.0085 10.8867 15.6902 10.8867 14.0569C10.8867 12.3885 12.2284 11.0469 13.8967 11.0469C15.5651 11.0469 16.9067 12.4002 16.9067 14.0569C16.8951 15.6902 15.6117 17.0202 14.0017 17.0669Z" stroke="#0D184A" stroke-width="1.75" stroke-linecap="round" stroke-linejoin="round"/>
<path d="M10.6048 20.74C8.95984 21.8367 8.95984 23.6333 10.6048 24.73C12.4715 25.9783 15.5282 25.9783 17.3948 24.73C19.0398 23.6333 19.0398 21.8367 17.3948 20.74C15.5398 19.5033 12.4715 19.5033 10.6048 20.74Z" stroke="#0D184A" stroke-width="1.75" stroke-linecap="round" stroke-linejoin="round"/>
</svg>
