<svg width="19" height="19" viewBox="0 0 19 19" fill="none" xmlns="http://www.w3.org/2000/svg">
<path d="M17.3917 14.3583C17.3917 14.6583 17.325 14.9667 17.1833 15.2667C17.0417 15.5667 16.8583 15.85 16.6167 16.1167C16.2083 16.5667 15.7583 16.8917 15.25 17.1C14.75 17.3083 14.2083 17.4167 13.625 17.4167C12.775 17.4167 11.8667 17.2167 10.9083 16.8083C9.95 16.4 8.99167 15.85 8.04167 15.1583C7.08333 14.4583 6.175 13.6833 5.30833 12.825C4.45 11.9583 3.675 11.05 2.98333 10.1C2.3 9.15 1.75 8.2 1.35 7.25833C0.95 6.30833 0.75 5.4 0.75 4.53333C0.75 3.96667 0.85 3.425 1.05 2.925C1.25 2.41667 1.56667 1.95 2.00833 1.53333C2.54167 1.00833 3.125 0.75 3.74167 0.75C3.975 0.75 4.20833 0.8 4.41667 0.9C4.63333 1 4.825 1.15 4.975 1.36667L6.90833 4.09167C7.05833 4.3 7.16667 4.49167 7.24167 4.675C7.31667 4.85 7.35833 5.025 7.35833 5.18333C7.35833 5.38333 7.3 5.58333 7.18333 5.775C7.075 5.96667 6.91667 6.16667 6.71667 6.36667L6.08333 7.025C5.99167 7.11667 5.95 7.225 5.95 7.35833C5.95 7.425 5.95833 7.48333 5.975 7.55C6 7.61667 6.025 7.66667 6.04167 7.71667C6.19167 7.99167 6.45 8.35 6.81667 8.78333C7.19167 9.21667 7.59167 9.65833 8.025 10.1C8.475 10.5417 8.90833 10.95 9.35 11.325C9.78333 11.6917 10.1417 11.9417 10.425 12.0917C10.4667 12.1083 10.5167 12.1333 10.575 12.1583C10.6417 12.1833 10.7083 12.1917 10.7833 12.1917C10.925 12.1917 11.0333 12.1417 11.125 12.05L11.7583 11.425C11.9667 11.2167 12.1667 11.0583 12.3583 10.9583C12.55 10.8417 12.7417 10.7833 12.95 10.7833C13.1083 10.7833 13.275 10.8167 13.4583 10.8917C13.6417 10.9667 13.8333 11.075 14.0417 11.2167L16.8 13.175C17.0167 13.325 17.1667 13.5 17.2583 13.7083C17.3417 13.9167 17.3917 14.125 17.3917 14.3583Z" stroke="#0D184A" stroke-width="1.5" stroke-miterlimit="10"/>
</svg>
