<svg width="17" height="9" viewBox="0 0 17 9" fill="none" xmlns="http://www.w3.org/2000/svg">
<path d="M7.84838 8.4241C8.23238 7.5841 8.66438 6.6841 9.14438 5.7241C9.64838 4.7641 10.1884 3.7921 10.7644 2.8081C11.3404 1.8241 11.9044 0.8881 12.4564 9.98974e-05H16.4164C16.0084 0.936101 15.6004 1.9321 15.1924 2.9881C14.7844 4.0441 14.3884 5.0761 14.0044 6.0841C13.6444 7.0681 13.3084 7.9801 12.9964 8.8201H7.99238L7.84838 8.4241ZM0.000375062 8.4241C0.384375 7.5841 0.816375 6.6841 1.29638 5.7241C1.80038 4.7641 2.34038 3.7921 2.91638 2.8081C3.49238 1.8241 4.05638 0.8881 4.60838 9.98974e-05H8.56837C8.25638 0.720101 7.94438 1.4641 7.63238 2.2321C7.32038 3.0001 7.02038 3.7801 6.73238 4.5721C6.44438 5.3401 6.15638 6.0841 5.86838 6.8041C5.60438 7.5241 5.36438 8.1961 5.14838 8.8201H0.144375L0.000375062 8.4241Z" fill="black" fill-opacity="0.87"/>
</svg>
